# xmcd CD database file
#
# Track frame offsets:
#	150
#	17250
#	32925
#	49275
#	69750
#	89400
#	105825
#	121125
#	135675
#	152475
#	180675
#	212100
#
# Disc length: 3155 seconds
#
# Revision: 3
# Processed by: cddbd v1.5.2PL0 Copyright (c) Steve Scherf et al.
# Submitted via: CDex 1.50
#
DISCID=930c510c
DTITLE=Verschiedene - The Ultimate Blues Collection Vol. 3 - CD01
DYEAR=1990
DGENRE=Blues
TTITLE0=Karen Carroll - Little Red Rooster (1990)
TTITLE1=Karen Carroll - Woke Up This Morning (1990)
TTITLE2=Karen Carroll - Big Boss Man (1990)
TTITLE3=Karen Carroll - Sweet Home Chicago (1990)
TTITLE4=Maisha Grant - Help Me Through The Day (1989)
TTITLE5=Maisha Grant - Mellow Down Easy (1989)
TTITLE6=Maisha Grant - Mama Talk To Your Daughter (1989)
TTITLE7=Maisha Grant - Please Love Me (1989)
TTITLE8=The Cat - Lumbago Blues (1990)
TTITLE9=The Cat - Tin Roof Blues (1990)
TTITLE10=Katie Webster - When Something Is Wrong With My Baby (1986)
TTITLE11=Katie Webster - Misty Blue (1986)
EXTD=YEAR: 1990
EXTT0=
EXTT1=
EXTT2=
EXTT3=
EXTT4=
EXTT5=
EXTT6=
EXTT7=
EXTT8=
EXTT9=
EXTT10=
EXTT11=
PLAYORDER=
